<svg aria-hidden="true" focusable="false" viewBox="0 0 325 234" fill="none" xmlns="http://www.w3.org/2000/svg">
<path d="M5.41686 176.826C5.4878 180.816 3.00491 185.815 7.19035 187.657C10.9501 189.63 8.25444 193.05 5.52327 193.84C8.92837 196.909 11.163 196.076 9.10572 204.802C8.18351 202.346 7.50958 199.672 5.77156 197.918C5.38139 200.242 5.02669 202.566 4.45917 204.846C6.72924 214.537 13.5394 221.64 21.9103 221.509C55.8904 224.491 89.2675 210.766 123.248 212.827C133.144 214.756 143.146 214.23 153.113 214.405C163.754 214.405 174.466 213.397 185.001 215.458C182.66 215.94 180.39 216.817 178.19 217.825C180.886 224.841 186.916 224.403 192.414 224.008L192.981 222.824C199.614 221.29 206.07 218.834 212.561 216.466C216.569 215.282 229.338 210.678 224.975 217.694C211.461 222.693 197.238 226.464 184.398 233.612C188.051 234.708 191.846 233.261 195.358 232.033C199.827 229.796 204.722 229.358 209.226 227.166C215.434 224.228 221.818 221.947 228.203 219.711C229.799 219.36 231.431 219.053 233.062 218.703C238.099 216.247 244.235 214.624 249.236 218.045C251.755 217.124 254.238 216.159 256.792 215.326C270.66 208.661 285.416 204.714 300.207 202.741C300.881 202.873 302.193 203.136 302.867 203.267C303.434 203.399 304.534 203.574 305.066 203.706C310.28 202.785 308.329 198.839 306.343 194.98C313.153 195.243 317.019 185.245 325 189.893C321.134 183.93 319.041 174.852 311.486 175.686L311.77 173.932C312.692 168.319 306.91 170.424 304.002 168.977C299.036 160.207 288.963 164.942 281.408 164.329C273.32 160.645 264.595 160.864 256.401 157.839L255.479 157.663C252.819 157.576 250.123 157.62 247.676 156.172C247.073 156.041 245.867 155.822 245.264 155.734C233.665 152.533 222.35 147.622 211.035 143.193C203.374 138.106 194.613 140.167 186.348 139.334C181.808 138.457 177.304 138.019 172.728 138.194C174.36 141.702 175.424 148.016 179.396 147.841C182.518 147.183 182.447 149.2 180.886 151.744C178.013 150.472 170.777 146.087 171.593 152.708C175.459 155.865 178.687 160.645 183.688 160.733C187.483 162.092 192.627 162.399 195.251 165.907C190.002 169.327 184.859 162.268 179.396 162.706C181.454 168.889 190.073 167.047 194.152 171.915C189.612 172.178 185.107 172.265 180.567 172.572C180.035 172.397 178.971 172.002 178.474 171.827C177.02 170.994 175.566 170.336 174.076 169.678C163.825 174.94 152.12 170.994 141.302 172.572C108.102 171.345 75.0087 173.669 42.3409 180.597C39.929 179.851 38.2619 179.851 37.0205 180.421C34.7504 180.334 32.5158 180.246 30.2812 180.202C29.891 171.081 32.0902 162.136 31.6291 153.015C38.8294 152.007 34.5376 140.781 35.3179 134.686C35.3889 130.608 35.3179 126.53 35.2115 122.452C35.6017 109.823 35.6371 97.1504 35.2115 84.4777C35.7436 76.0147 36.7367 67.6394 36.8431 59.1325C36.382 56.2822 38.3329 49.4417 34.3248 51.8973C29.0752 45.1005 32.5513 34.7519 31.5581 26.4642C31.5936 23.307 31.3098 20.2376 30.9906 17.1243C30.9906 23.7895 28.0821 31.4631 28.9688 16.7295C28.224 12.4322 27.0889 20.8076 26.5214 22.3862C26.1667 21.8161 25.4218 20.7637 25.0672 20.1937C24.9607 14.3617 25.0317 5.81091 19.0018 4.84621C17.9377 1.77671 16.2706 -3.00289 14.71 2.56606C13.9651 9.5382 13.1848 16.5542 13.2912 23.5702C13.0429 30.7616 6.72925 33.6556 8.04163 41.2855C8.82197 46.4598 1.69253 45.7144 2.7921 51.0202C2.33099 54.879 6.12626 50.5379 6.87112 49.2662C6.65831 58.387 -0.116429 66.0608 2.57928 75.1816C0.628437 92.7654 -0.754889 110.481 0.451085 128.284C-0.648481 144.552 1.40877 160.733 1.55065 177.001C3.00491 180.378 4.13994 180.509 5.4878 177.001L5.41686 176.826Z" fill="currentColor"/>
</svg>
