<svg aria-hidden="true" focusable="false" viewBox="0 0 300 257" fill="none" xmlns="http://www.w3.org/2000/svg">
<path d="M294.452 72.6923C297.971 58.1208 301.829 42.9801 299.049 27.9531C297.687 18.7321 291.842 10.8202 291.672 1.31451C286.622 -4.03599 286.962 8.48639 284.125 11.3893C276.294 11.9016 269.598 18.5044 261.824 14.2923C250.872 17.3091 246.559 30.5146 236.629 36.3774C224.826 51.2905 206.894 56.9255 194.978 71.554C185.501 83.678 170.35 89.9393 162.122 103.202C158.774 104.283 155.766 109.634 152.191 106.731C152.929 102.86 155.199 98.7619 153.383 94.8914C144.644 90.0531 143.509 78.4983 134.827 73.66C131.252 73.66 128.642 79.6936 131.706 82.2551C130.515 89.3132 124.159 94.436 117.293 93.9806C97.205 122.441 64.1791 142.192 34.1039 160.179C27.181 160.577 30.4155 169.855 26.6703 173.896C23.8898 175.092 18.5558 174.067 19.8609 178.621C21.2228 186.077 5.67446 187.045 10.7248 193.42C6.97961 195.014 3.51822 197.177 0 199.169C0.226982 199.909 0.624111 201.446 0.794347 202.243C6.18517 203.267 11.7463 202.47 17.1939 202.015C19.407 201.503 21.6199 202.186 23.833 202.072C26.8405 202.072 29.8481 201.901 32.7989 201.56C34.8985 201.218 36.9414 201.048 39.0409 201.218C41.254 200.649 43.467 200.023 45.6801 199.34C67.6973 197.632 88.8635 191.656 110.484 187.443C121.379 183.971 132.614 181.979 143.282 177.995C155.653 173.726 167.57 167.977 178.238 160.293C183.572 153.064 192.424 151.072 198.893 145.38C193.502 145.095 187.487 146.29 183.004 142.42C184.139 138.435 179.032 134.735 176.422 138.72C162.973 140.427 150.319 145.095 137.551 149.25C132.33 151.299 127.053 153.462 121.379 154.088C124.443 146.347 134.373 147.429 139.537 142.021C147.765 133.996 158.263 129.271 167.229 122.327C191.459 110.089 210.526 89.9962 231.749 73.5463C235.778 66.2605 244.403 63.756 251.099 59.487C257.852 53.2257 261.54 56.8686 258.76 65.122C255.979 70.4156 258.476 86.0687 250.815 82.5966C251.099 86.8087 250.758 91.0207 248.091 94.4359C245.651 113.96 243.779 133.597 240.317 153.007C239.239 167.123 237.82 181.182 236.345 195.242C236.005 198.657 235.551 202.072 234.643 205.373C237.594 214.651 220.229 223.873 235.551 228.995C235.664 236.395 238.104 243.852 236.969 251.251C238.728 253.243 240.488 255.235 242.417 257C241.168 248.747 237.991 240.778 238.218 232.297C237.82 225.694 238.047 219.034 238.615 212.432C239.466 212.204 241.225 211.692 242.076 211.407C239.807 215.448 242.928 223.076 246.503 216.416C244.516 208.618 250.248 217.384 253.142 214.993C257.795 226.035 263.867 212.489 263.469 206.057C263.526 204.349 263.64 202.698 263.753 201.048C263.413 191.997 266.193 183.288 266.477 174.295C268.236 161.203 272.151 148.283 277.259 136.159C281.514 117.659 285.6 98.1357 290.083 80.3766C291.615 77.8152 293.091 75.14 294.396 72.4078L294.452 72.6923Z" fill="currentColor"/>
</svg>
